<?xml version="1.0" standalone="no"?><!DOCTYPE svg PUBLIC "-//W3C//DTD SVG 1.1//EN" "http://www.w3.org/Graphics/SVG/1.1/DTD/svg11.dtd"><svg t="1739890236737" class="icon" viewBox="0 0 1199 1024" version="1.1" xmlns="http://www.w3.org/2000/svg" p-id="2902" xmlns:xlink="http://www.w3.org/1999/xlink" width="234.1796875" height="200"><path d="M578.424799 565.492537L264.523536 458.507463v278.631458c328.009185 252.766935 634.856487-8.229621 634.856487-8.229621V446.750861L578.424799 565.492537z" fill="#1b6740" p-id="2903" data-spm-anchor-id="a313x.manage_type_myprojects.0.i13.72a53a81rT9FUT" class="selected"></path><path d="M1118.052813 792.394948c0-47.026406-24.688863-110.512055-55.256028-117.566016V299.793341l130.498278-47.026406L592.532721 0 5.878301 275.104478l586.65442 192.808266 444.399541-158.714122v367.981631c-28.215844 10.580941-49.377727 71.71527-49.377727 115.214695 0 37.621125 15.283582 70.53961 37.621125 85.823192l-11.756601 91.701493 28.215843-41.148106 11.756602 95.228473 17.634902-90.525832 45.850747 49.377726-31.742825-106.985074c18.810563-16.459242 32.918485-48.202067 32.918485-83.471872z" fill="#1b6740" p-id="2904" data-spm-anchor-id="a313x.manage_type_myprojects.0.i17.72a53a81rT9FUT" class="selected"></path></svg>